<?xml version="1.0" encoding="utf-8"?>
<!-- Generator: Adobe Illustrator 16.0.0, SVG Export Plug-In . SVG Version: 6.00 Build 0)  -->
<!DOCTYPE svg PUBLIC "-//W3C//DTD SVG 1.1//EN" "http://www.w3.org/Graphics/SVG/1.1/DTD/svg11.dtd">
<svg version="1.1" id="Layer_1" xmlns="http://www.w3.org/2000/svg" xmlns:xlink="http://www.w3.org/1999/xlink" x="0px" y="0px"
	 width="100px" height="100px" viewBox="0 0 100 100" enable-background="new 0 0 100 100" xml:space="preserve">
<rect x="7.5" y="7.5" fill="#83CF00" width="42.5" height="42.5"/>
<rect x="50" y="7.5" fill="#02578F" width="42.5" height="42.5"/>
<rect x="7.5" y="50" fill="#E07D00" width="42.5" height="42.5"/>
<rect x="50" y="50" fill="#B8005E" width="42.5" height="42.5"/>
<polygon points="25,7.5 25,0 7.5,0 0,0 0,7.5 0,92.5 0,100 7.5,100 25,100 25,92.5 7.5,92.5 7.5,7.5 "/>
<polygon points="75,92.5 75,100 92.5,100 100,100 100,92.5 100,7.5 100,0 92.5,0 75,0 75,7.5 92.5,7.5 92.5,92.5 "/>
<rect x="58.75" y="25" width="25" height="7.5"/>
<polygon points="32.5,25 32.5,16.25 25,16.25 25,25 16.25,25 16.25,32.5 25,32.5 25,41.25 32.5,41.25 32.5,32.5 41.25,32.5 
	41.25,25 "/>
<polygon points="28.875,65.946 22.688,59.76 17.385,65.063 23.571,71.25 17.385,77.438 22.688,82.74 28.875,76.554 35.063,82.74 
	40.365,77.438 34.179,71.25 40.365,65.063 35.063,59.76 "/>
<path d="M75,62.5c0,2.071-1.679,3.75-3.75,3.75l0,0c-2.071,0-3.75-1.679-3.75-3.75l0,0c0-2.071,1.679-3.75,3.75-3.75l0,0
	C73.321,58.75,75,60.429,75,62.5L75,62.5z"/>
<path d="M75,80c0,2.071-1.679,3.75-3.75,3.75l0,0c-2.071,0-3.75-1.679-3.75-3.75l0,0c0-2.071,1.679-3.75,3.75-3.75l0,0
	C73.321,76.25,75,77.929,75,80L75,80z"/>
<rect x="58.75" y="67.5" width="25" height="7.5"/>
</svg>
